<svg width="79" height="26" viewBox="0 0 79 26" fill="none" xmlns="http://www.w3.org/2000/svg">
<path d="M8.2357 3.12217C9.50292 3.61908 10.7279 4.27538 11.8825 5.077C12.0139 5.16606 12.1641 5.21294 12.3143 5.21294C12.4645 5.21294 12.6147 5.16606 12.7461 5.077C13.9007 4.27538 15.1256 3.61439 16.3929 3.11748C16.6792 3.00497 16.8716 2.72371 16.8669 2.41431C16.8669 2.10491 16.6745 1.82833 16.3835 1.72051C13.849 0.759505 10.7795 0.759505 8.24978 1.72051C7.96348 1.82833 7.76636 2.1096 7.76636 2.41431C7.76636 2.71902 7.94471 3.00966 8.2357 3.12217Z" fill="white"/>
<path d="M19.1203 3.1265C18.8809 2.96243 18.5759 2.94837 18.3177 3.09369C16.9144 3.9 15.558 4.8235 14.2767 5.84076C14.1077 5.9767 14.0044 6.17828 13.9951 6.39392C13.9857 6.60956 14.0702 6.82051 14.225 6.97052C16.8815 9.49726 20.5612 17.2462 21.406 20.809C19.5756 17.715 15.4923 10.4348 12.8217 7.94559C12.5354 7.67839 12.0848 7.67839 11.7985 7.94559C9.12327 10.4348 5.05407 17.7197 3.22363 20.8184C4.06844 17.2556 7.73871 9.49726 10.3952 6.97052C10.5548 6.82051 10.6393 6.60956 10.6299 6.39392C10.6205 6.17828 10.5172 5.9767 10.3483 5.84076C9.06695 4.8235 7.70586 3.9 6.30721 3.09369C6.05846 2.94837 5.744 2.96243 5.50463 3.1265C2.2427 5.37197 0.294922 9.06129 0.294922 12.9991C0.294922 15.8774 1.33217 18.6526 3.22363 20.8184C5.48586 23.4717 8.79473 24.9999 12.3101 24.9999C15.8255 24.9999 19.1391 23.4764 21.406 20.8137C23.2881 18.6573 24.3253 15.8821 24.3253 12.9991C24.3253 9.06129 22.3775 5.37197 19.1203 3.1265Z" fill="white"/>
<path fill-rule="evenodd" clip-rule="evenodd" d="M65.2814 25.902C72.4369 25.902 78.2375 20.1255 78.2375 12.9999C78.2375 5.87434 72.4369 0.0979004 65.2814 0.0979004C58.1259 0.0979004 52.3252 5.87434 52.3252 12.9999C52.3252 14.3143 52.5225 15.5827 52.8894 16.7774C52.9829 16.7942 53.1343 16.8326 53.3548 16.8969L53.0105 11.5017C53.0105 11.4028 53.178 11.3552 53.3315 11.3117C53.4157 11.2877 53.4957 11.265 53.5415 11.2357C53.6664 11.157 56.2397 12.0927 56.3771 12.1548L59.6677 13.637C60.5174 13.1029 61.5337 12.8876 62.5334 13.0325L65.524 9.40147C65.5615 6.50326 67.9357 4.16813 70.8555 4.16399C73.5838 4.19297 75.8455 6.26312 76.1037 8.95846C76.3786 11.8732 74.2294 14.4568 71.297 14.7342L66.3154 18.2741C66.0113 19.8268 64.895 21.0978 63.3872 21.6029C61.0755 22.3813 58.5639 21.1475 57.785 18.8455L56.0522 18.2741C55.9238 18.2335 53.5656 17.2566 52.927 16.8979C54.5864 22.1182 59.4901 25.902 65.2814 25.902ZM73.5214 9.46349C73.5214 10.9269 72.3279 12.1133 70.8556 12.1133C69.3833 12.1133 68.1898 10.9269 68.1898 9.46349C68.1898 8.00005 69.3833 6.81369 70.8556 6.81369C72.3279 6.81369 73.5214 8.00005 73.5214 9.46349ZM72.6347 9.46355C72.6347 10.4399 71.8384 11.2315 70.8561 11.2315C69.8738 11.2315 69.0775 10.4399 69.0775 9.46355C69.0775 8.48716 69.8738 7.69564 70.8561 7.69564C71.8384 7.69564 72.6347 8.48716 72.6347 9.46355ZM60.8137 19.7978C61.1719 19.9717 61.5676 20.0628 61.9675 20.0628C62.2715 20.0628 62.5672 20.0131 62.8588 19.9179C63.5294 19.686 64.075 19.2016 64.3833 18.5681C65.0247 17.2474 64.4666 15.6658 63.142 15.0282C62.9171 14.9205 62.6547 15.0116 62.5464 15.2311C62.4381 15.4546 62.5298 15.7155 62.7505 15.8231C62.7797 15.8356 62.8088 15.848 62.838 15.8645C63.7127 16.3117 64.05 17.3757 63.6002 18.2452C63.1504 19.1147 62.0758 19.45 61.2052 19.0029C60.9803 18.8952 60.7179 18.9863 60.6096 19.2058C60.5013 19.4293 60.593 19.6902 60.8137 19.7978Z" fill="white"/>
</svg>
