<svg width="22" height="17" viewBox="0 0 22 17" fill="none" xmlns="http://www.w3.org/2000/svg">
<path fill-rule="evenodd" clip-rule="evenodd" d="M21.5463 1.90599C20.7733 2.22799 19.9423 2.44299 19.0713 2.54099C19.9613 2.04099 20.6443 1.24899 20.9663 0.306986C20.1323 0.768986 19.2103 1.10499 18.2283 1.28699C17.4433 0.500986 16.3223 0.0109863 15.0833 0.0109863C12.7033 0.0109863 10.7723 1.81999 10.7723 4.04999C10.7723 4.36699 10.8103 4.67599 10.8843 4.97099C7.3023 4.80199 4.1263 3.19399 2.0003 0.750986C1.6293 1.34799 1.4173 2.04099 1.4173 2.78199C1.4173 4.18199 2.1783 5.41999 3.3343 6.14399C2.6283 6.12199 1.9643 5.94099 1.3823 5.63799C1.3823 5.65599 1.3823 5.67099 1.3823 5.68999C1.3823 7.64699 2.8673 9.27899 4.8393 9.64999C4.4783 9.74199 4.0963 9.78999 3.7043 9.78999C3.4263 9.78999 3.1563 9.76599 2.8933 9.71999C3.4413 11.323 5.0333 12.492 6.9193 12.525C5.4443 13.608 3.5863 14.253 1.5663 14.253C1.2183 14.253 0.8753 14.234 0.5383 14.197C2.4453 15.342 4.7113 16.012 7.1453 16.012C15.0733 16.012 19.4083 9.85599 19.4083 4.51899C19.4083 4.34299 19.4033 4.16999 19.3953 3.99599C20.2373 3.42599 20.9683 2.71499 21.5463 1.90599Z" fill="white"/>
</svg>
