<svg width="20" height="19" viewBox="0 0 20 19" fill="none" xmlns="http://www.w3.org/2000/svg">
<path fill-rule="evenodd" clip-rule="evenodd" d="M19.6898 12.956V8.88461V0.0109863H2.66855L0.540894 2.30769V14.4176H5.86004V18.1758H8.20047L10.7537 15.4615H17.1366L19.6898 12.956ZM7.13655 12.7473H3.73229C3.49825 12.7473 3.30676 12.5594 3.30676 12.3297V2.09898C3.30676 1.86931 3.49825 1.6814 3.73229 1.6814H17.3493C17.5834 1.6814 17.7748 1.86931 17.7748 2.09898V10.033C17.7748 10.1479 17.7323 10.2523 17.6525 10.3306L15.3121 12.6273C15.2323 12.7056 15.1206 12.7473 15.0089 12.7473H11.0993L7.80144 14.971C7.73229 15.0179 7.64719 15.044 7.56208 15.044C7.49293 15.044 7.4291 15.0284 7.36527 14.9971C7.22166 14.924 7.13655 14.783 7.13655 14.6265V12.7473Z" fill="white"/>
<path d="M13.5196 9.09355V4.91772H11.8175V9.09355H13.5196ZM9.26426 9.09355V4.91772H7.56213V9.09355H9.26426Z" fill="white"/>
</svg>
